<svg width="512" height="512" viewBox="0 0 512 512" fill="none" xmlns="http://www.w3.org/2000/svg">
<rect width="512" height="512" fill="url(#paint0_linear_10_333)"/>
<path d="M494.999 114.318C493.574 88.9702 482.863 65.0355 464.911 47.0837C446.959 29.1319 423.024 18.4207 397.677 16.9951C303.303 11.6618 208.703 11.6618 114.329 16.9951C88.9807 18.4215 65.0459 29.1329 47.0934 47.0843C29.141 65.0358 18.4283 88.97 17.0005 114.318C11.6672 208.694 11.6672 303.296 17.0005 397.672C18.4285 423.02 29.1413 446.954 47.0937 464.906C65.0461 482.857 88.9808 493.569 114.329 494.995C208.702 500.342 303.303 500.342 397.677 494.995C423.024 493.569 446.959 482.858 464.911 464.906C482.862 446.955 493.574 423.02 494.999 397.672C500.333 303.296 500.333 208.694 494.999 114.318Z" fill="url(#paint1_linear_10_333)"/>
<path d="M413.895 136.43C413.869 121.577 401.827 109.544 386.974 109.528H386.958L125.905 109.691C111.042 109.716 99.0064 121.765 99 136.628L99.1083 312.749C99.1179 327.612 111.17 339.654 126.029 339.654H126.049L215.202 339.597C217.2 339.597 219.055 340.642 220.087 342.35L255.469 400.826L290.774 342.309C291.81 340.594 293.661 339.549 295.663 339.546L387.095 339.492C401.957 339.463 413.994 327.414 414 312.552L413.895 136.43ZM360.515 269.624H152.488C149.334 269.624 146.778 267.068 146.778 263.913C146.778 260.762 149.334 258.203 152.488 258.203H360.515C363.67 258.203 366.225 260.762 366.225 263.913C366.225 267.068 363.67 269.624 360.515 269.624ZM360.515 228.834H152.488C149.334 228.834 146.778 226.279 146.778 223.124C146.778 219.972 149.334 217.413 152.488 217.413H360.515C363.67 217.413 366.225 219.972 366.225 223.124C366.225 226.279 363.67 228.834 360.515 228.834ZM360.515 188.045H152.488C149.334 188.045 146.778 185.489 146.778 182.334C146.778 179.183 149.334 176.624 152.488 176.624H360.515C363.67 176.624 366.225 179.183 366.225 182.334C366.225 185.489 363.67 188.045 360.515 188.045Z" fill="url(#paint2_linear_10_333)"/>
<defs>
<linearGradient id="paint0_linear_10_333" x1="256" y1="1.36755" x2="256" y2="511.812" gradientUnits="userSpaceOnUse">
<stop stop-color="#FFFCD9"/>
<stop offset="0.7781" stop-color="#FFEBA8"/>
<stop offset="1" stop-color="#FFE699"/>
</linearGradient>
<linearGradient id="paint1_linear_10_333" x1="256" y1="14.2933" x2="256" y2="498.827" gradientUnits="userSpaceOnUse">
<stop stop-color="#FFFCD9"/>
<stop offset="0.7781" stop-color="#FFEBA8"/>
<stop offset="1" stop-color="#FFE699"/>
</linearGradient>
<linearGradient id="paint2_linear_10_333" x1="256.5" y1="109.528" x2="256.498" y2="400.826" gradientUnits="userSpaceOnUse">
<stop stop-color="#FD6700"/>
<stop offset="1" stop-color="#FFCE00"/>
</linearGradient>
</defs>
</svg>
