<svg width="512" height="512" viewBox="0 0 512 512" fill="none" xmlns="http://www.w3.org/2000/svg">
<rect width="512" height="512" fill="url(#paint0_linear_10_207)"/>
<path d="M494.999 114.318C493.574 88.9702 482.863 65.0355 464.911 47.0837C446.959 29.1319 423.024 18.4207 397.677 16.9951C303.303 11.6618 208.703 11.6618 114.328 16.9951C88.9807 18.4215 65.0459 29.1329 47.0934 47.0843C29.1409 65.0358 18.4283 88.97 17.0005 114.318C11.6672 208.694 11.6672 303.296 17.0005 397.672C18.4285 423.02 29.1412 446.954 47.0937 464.906C65.0461 482.857 88.9807 493.569 114.328 494.995C208.702 500.342 303.303 500.342 397.677 494.995C423.024 493.569 446.959 482.858 464.911 464.906C482.862 446.955 493.574 423.02 494.999 397.672C500.333 303.296 500.333 208.694 494.999 114.318Z" fill="url(#paint1_linear_10_207)"/>
<path d="M353.645 412.999L326.123 396.828C324.578 395.92 322.66 395.92 321.115 396.828L293.591 412.999V346.745C312.027 357.999 335.208 357.999 353.645 346.745V412.999ZM279.558 334.583C280.857 336.158 282.24 337.659 283.702 339.08V376.998H196.523C186.737 376.987 178.804 369.058 178.793 359.269V334.583H279.558ZM234.331 351.035C231.602 351.035 229.387 353.248 229.387 355.979C229.387 358.708 231.602 360.924 234.331 360.924H261.977C264.708 360.924 266.921 358.708 266.921 355.979C266.921 353.248 264.708 351.035 261.977 351.035H234.331ZM323.617 254.605C349.384 254.605 370.349 274.948 370.349 299.951C370.349 324.954 349.384 345.297 323.617 345.297C297.85 345.297 276.887 324.954 276.887 299.951C276.887 274.948 297.85 254.606 323.617 254.605ZM323.617 267.59C321.794 267.59 320.174 268.757 319.598 270.486L313.837 287.745H295.11C293.265 287.745 291.631 288.94 291.071 290.7C290.511 292.46 291.157 294.377 292.663 295.442L307.714 306.084L301.98 323.252C301.399 324.99 302.003 326.905 303.474 327.997C304.944 329.09 306.95 329.111 308.448 328.055L323.617 317.33L338.79 328.058C340.285 329.114 342.291 329.09 343.762 327.997C345.235 326.904 345.836 324.992 345.254 323.254L339.523 306.084L354.571 295.442C356.08 294.377 356.723 292.46 356.166 290.7C355.606 288.94 353.973 287.745 352.127 287.745H333.401L327.638 270.486C327.061 268.757 325.441 267.59 323.617 267.59ZM313.216 211.197C314.518 212.632 315.959 213.935 317.518 215.088V245.043C289.154 248.023 266.998 271.506 266.998 299.949C266.995 308.563 269.062 317.05 273.024 324.695H178.796V213.962C179.817 213.107 180.78 212.182 181.677 211.197C187.297 217.364 195.254 220.879 203.598 220.879C211.941 220.879 219.898 217.364 225.519 211.197C231.136 217.369 239.096 220.885 247.442 220.885C255.786 220.885 263.745 217.369 269.365 211.197C274.985 217.369 282.943 220.885 291.289 220.885C299.635 220.885 307.596 217.369 313.216 211.197ZM326.327 293.323C326.904 295.053 328.523 296.221 330.347 296.221H338.79L332.061 300.979C330.535 302.058 329.895 304.009 330.485 305.783L333.12 313.666L326.064 308.678C324.599 307.64 322.638 307.64 321.173 308.678L314.118 313.666L316.75 305.783C317.34 304.009 316.703 302.058 315.175 300.979L308.445 296.221H316.886C318.709 296.221 320.329 295.053 320.905 293.323L323.617 285.209L326.327 293.323ZM352.127 201.327C348.471 207.499 341.753 211.202 334.579 210.998C327.408 210.791 320.913 206.71 317.616 200.337C317.6 200.307 317.575 200.26 317.556 200.227C316.689 198.64 315.023 197.653 313.213 197.655H313.199C311.384 197.661 309.717 198.662 308.859 200.26L308.82 200.332C305.429 206.885 298.67 210.998 291.292 210.998C283.914 210.998 277.152 206.885 273.764 200.332C273.75 200.307 273.733 200.274 273.72 200.252C272.859 198.655 271.192 197.658 269.377 197.655H269.365C267.553 197.655 265.889 198.646 265.022 200.235C265.003 200.268 264.987 200.299 264.971 200.332C261.583 206.885 254.819 210.998 247.441 210.998C240.064 210.998 233.304 206.885 229.913 200.332C229.866 200.238 229.811 200.141 229.759 200.05C228.846 198.505 227.157 197.583 225.361 197.649C223.571 197.705 221.948 198.728 221.123 200.32C217.735 206.873 210.972 210.987 203.595 210.987C196.217 210.987 189.457 206.873 186.066 200.32C185.217 198.679 183.522 197.65 181.674 197.649V197.655C179.822 197.658 178.128 198.69 177.278 200.332C173.981 206.703 167.489 210.783 160.318 210.99C153.147 211.197 146.429 207.496 142.771 201.327V172.228H352.127V201.327ZM345.638 162.331H149.547L175.935 135.242H320.18L345.638 162.331ZM299.787 98C309.573 98.011 317.504 105.943 317.518 115.729V125.356H178.793V115.729C178.804 105.943 186.737 98.011 196.523 98H299.787Z" fill="url(#paint2_linear_10_207)"/>
<defs>
<linearGradient id="paint0_linear_10_207" x1="256" y1="1.36755" x2="256" y2="511.812" gradientUnits="userSpaceOnUse">
<stop stop-color="#FFFCD9"/>
<stop offset="0.7781" stop-color="#FFEBA8"/>
<stop offset="1" stop-color="#FFE699"/>
</linearGradient>
<linearGradient id="paint1_linear_10_207" x1="256" y1="14.2933" x2="256" y2="498.827" gradientUnits="userSpaceOnUse">
<stop stop-color="#FFFCD9"/>
<stop offset="0.7781" stop-color="#FFEBA8"/>
<stop offset="1" stop-color="#FFE699"/>
</linearGradient>
<linearGradient id="paint2_linear_10_207" x1="256.56" y1="98" x2="256.557" y2="412.999" gradientUnits="userSpaceOnUse">
<stop stop-color="#FD6700"/>
<stop offset="1" stop-color="#FFCE00"/>
</linearGradient>
</defs>
</svg>
