<svg width="512" height="512" viewBox="0 0 512 512" fill="none" xmlns="http://www.w3.org/2000/svg">
<rect width="512" height="512" fill="url(#paint0_linear_10_222)"/>
<path d="M494.999 114.318C493.574 88.9702 482.863 65.0355 464.911 47.0837C446.959 29.1319 423.024 18.4207 397.677 16.9951C303.303 11.6618 208.703 11.6618 114.328 16.9951C88.9807 18.4215 65.0459 29.1329 47.0934 47.0843C29.1409 65.0358 18.4283 88.97 17.0005 114.318C11.6672 208.694 11.6672 303.296 17.0005 397.672C18.4285 423.02 29.1412 446.954 47.0937 464.906C65.0461 482.857 88.9807 493.569 114.328 494.995C208.702 500.342 303.303 500.342 397.677 494.995C423.024 493.569 446.959 482.858 464.911 464.906C482.862 446.955 493.574 423.02 494.999 397.672C500.333 303.296 500.333 208.694 494.999 114.318Z" fill="url(#paint1_linear_10_222)"/>
<g clip-path="url(#clip0_10_222)">
<path d="M403.786 99.9668C405.894 97.8585 409.31 97.8585 411.419 99.9668C413.527 102.075 413.527 105.491 411.419 107.6L370.417 148.602L370.974 258.802C370.98 260.241 370.411 261.624 369.393 262.646L228.035 404.003C215.513 416.491 195.251 416.491 182.729 404.003L107.383 328.656C94.8734 316.147 94.8733 295.863 107.383 283.351L248.741 141.993C249.756 140.969 251.144 140.396 252.584 140.411L362.784 140.969L403.786 99.9668ZM297.094 189.118C282.103 186.136 267.094 194.16 261.244 208.281C255.397 222.402 260.337 238.686 273.046 247.178C285.754 255.669 302.691 254 313.499 243.192C319.526 237.198 322.906 229.041 322.882 220.541C322.882 205.254 312.083 192.1 297.094 189.118ZM290.844 199.299C296.483 199.284 301.89 201.525 305.866 205.519C313.029 212.684 314.137 223.915 308.505 232.343C302.875 240.767 292.079 244.042 282.715 240.165C273.353 236.285 268.036 226.336 270.012 216.396C271.989 206.456 280.712 199.299 290.844 199.299Z" fill="url(#paint2_linear_10_222)"/>
</g>
<defs>
<linearGradient id="paint0_linear_10_222" x1="256" y1="1.36755" x2="256" y2="511.812" gradientUnits="userSpaceOnUse">
<stop stop-color="#FFFCD9"/>
<stop offset="0.7781" stop-color="#FFEBA8"/>
<stop offset="1" stop-color="#FFE699"/>
</linearGradient>
<linearGradient id="paint1_linear_10_222" x1="256" y1="14.2933" x2="256" y2="498.827" gradientUnits="userSpaceOnUse">
<stop stop-color="#FFFCD9"/>
<stop offset="0.7781" stop-color="#FFEBA8"/>
<stop offset="1" stop-color="#FFE699"/>
</linearGradient>
<linearGradient id="paint2_linear_10_222" x1="255.5" y1="98.3857" x2="255.498" y2="413.369" gradientUnits="userSpaceOnUse">
<stop stop-color="#FD6700"/>
<stop offset="1" stop-color="#FFCE00"/>
</linearGradient>
<clipPath id="clip0_10_222">
<rect width="315" height="315" fill="white" transform="translate(98 98)"/>
</clipPath>
</defs>
</svg>
