<svg width="512" height="512" viewBox="0 0 512 512" fill="none" xmlns="http://www.w3.org/2000/svg">
<rect width="512" height="512" fill="url(#paint0_linear_10_225)"/>
<path d="M494.999 114.318C493.574 88.9702 482.863 65.0355 464.911 47.0837C446.959 29.1319 423.024 18.4207 397.677 16.9951C303.303 11.6618 208.703 11.6618 114.328 16.9951C88.9807 18.4215 65.0459 29.1329 47.0934 47.0843C29.1409 65.0358 18.4283 88.97 17.0005 114.318C11.6672 208.694 11.6672 303.296 17.0005 397.672C18.4285 423.02 29.1412 446.954 47.0937 464.906C65.0461 482.857 88.9807 493.569 114.328 494.995C208.702 500.342 303.303 500.342 397.677 494.995C423.024 493.569 446.959 482.858 464.911 464.906C482.862 446.955 493.574 423.02 494.999 397.672C500.333 303.296 500.333 208.694 494.999 114.318Z" fill="url(#paint1_linear_10_225)"/>
<g clip-path="url(#clip0_10_225)">
<path d="M103.326 131.479H135.814C146.481 131.437 155.585 139.189 157.241 149.728L182.952 342.551C182.958 342.592 182.964 342.634 182.97 342.679C185.401 358.431 198.987 370.037 214.927 369.975H219.397C221.358 381.533 231.374 389.995 243.099 389.995C254.827 389.995 264.844 381.533 266.805 369.975H311.292C313.352 382.044 324.152 390.643 336.377 389.944C348.604 389.243 358.353 379.471 359.021 367.243C359.69 355.016 351.065 344.236 338.989 342.206C326.914 340.179 315.239 347.547 311.875 359.323H266.223C263.277 348.994 253.841 341.87 243.102 341.87C232.361 341.87 222.925 348.994 219.979 359.323H214.927C204.26 359.364 195.156 351.616 193.498 341.077L185.749 282.96H351.927C365.712 282.954 377.981 274.219 382.498 261.198L412.704 174.019C413.272 172.39 413.013 170.589 412.015 169.186C411.013 167.781 409.396 166.945 407.672 166.948H170.282L167.789 148.251C167.783 148.209 167.777 148.165 167.771 148.123C165.34 132.371 151.754 120.764 135.814 120.827H103.326C100.384 120.827 98 123.214 98 126.153C98 129.095 100.384 131.479 103.326 131.479V131.479ZM177.198 218.827H385.904L381.684 231.001H178.821L177.198 218.827Z" fill="url(#paint2_linear_10_225)"/>
</g>
<defs>
<linearGradient id="paint0_linear_10_225" x1="256" y1="1.36755" x2="256" y2="511.812" gradientUnits="userSpaceOnUse">
<stop stop-color="#FFFCD9"/>
<stop offset="0.7781" stop-color="#FFEBA8"/>
<stop offset="1" stop-color="#FFE699"/>
</linearGradient>
<linearGradient id="paint1_linear_10_225" x1="256" y1="14.2933" x2="256" y2="498.827" gradientUnits="userSpaceOnUse">
<stop stop-color="#FFFCD9"/>
<stop offset="0.7781" stop-color="#FFEBA8"/>
<stop offset="1" stop-color="#FFE699"/>
</linearGradient>
<linearGradient id="paint2_linear_10_225" x1="255.5" y1="120.827" x2="255.499" y2="389.995" gradientUnits="userSpaceOnUse">
<stop stop-color="#FD6700"/>
<stop offset="1" stop-color="#FFCE00"/>
</linearGradient>
<clipPath id="clip0_10_225">
<rect width="315" height="315" fill="white" transform="translate(98 98)"/>
</clipPath>
</defs>
</svg>
